<?xml version="1.0" encoding="UTF-8" standalone="no"?>
<!-- Created with Inkscape (http://www.inkscape.org/) -->

<svg
   xmlns:dc="http://purl.org/dc/elements/1.1/"
   xmlns:cc="http://creativecommons.org/ns#"
   xmlns:rdf="http://www.w3.org/1999/02/22-rdf-syntax-ns#"
   xmlns:svg="http://www.w3.org/2000/svg"
   xmlns="http://www.w3.org/2000/svg"
   xmlns:sodipodi="http://sodipodi.sourceforge.net/DTD/sodipodi-0.dtd"
   xmlns:inkscape="http://www.inkscape.org/namespaces/inkscape"
   id="svg2"
   version="1.1"
   inkscape:version="0.48.3.1 r9886"
   width="514.075"
   height="195.975"
   xml:space="preserve"
   sodipodi:docname="logoURJC.eps"><metadata
     id="metadata8"><rdf:RDF><cc:Work
         rdf:about=""><dc:format>image/svg+xml</dc:format><dc:type
           rdf:resource="http://purl.org/dc/dcmitype/StillImage" /><dc:title></dc:title></cc:Work></rdf:RDF></metadata><defs
     id="defs6"><clipPath
       clipPathUnits="userSpaceOnUse"
       id="clipPath18"><path
         d="M 0,1567.85 0,0 l 4112.58,0 0,1567.85 -4112.58,0 z"
         id="path20" /></clipPath></defs><sodipodi:namedview
     pagecolor="#ffffff"
     bordercolor="#666666"
     borderopacity="1"
     objecttolerance="10"
     gridtolerance="10"
     guidetolerance="10"
     inkscape:pageopacity="0"
     inkscape:pageshadow="2"
     inkscape:window-width="1449"
     inkscape:window-height="836"
     id="namedview4"
     showgrid="false"
     inkscape:zoom="2.0541749"
     inkscape:cx="242.25243"
     inkscape:cy="90.734212"
     inkscape:window-x="0"
     inkscape:window-y="26"
     inkscape:window-maximized="0"
     inkscape:current-layer="g12" /><g
     id="g10"
     inkscape:groupmode="layer"
     inkscape:label="ink_ext_XXXXXX"
     transform="matrix(1.25,0,0,-1.25,0,195.975)"><g
       id="g12"
       transform="scale(0.1,0.1)"><g
         id="g3152"
         inkscape:export-filename="/tmp/urjc.png"
         inkscape:export-xdpi="24"
         inkscape:export-ydpi="24"><g
           id="g3118"><g
             id="g14"
             inkscape:export-filename="/tmp/urjc.png"
             inkscape:export-xdpi="24.335089"
             inkscape:export-ydpi="24.335089"><g
               id="g16"
               clip-path="url(#clipPath18)"><path
                 d="m 710.57,903.746 -178.425,0 0,-459.984 c 0,-125.223 -50.083,-220.692 -198.766,-220.692 -97.035,0 -154.949,51.66 -154.949,194.09 l 0,486.586 L 0,903.746 0,399.93 C 0,188.66 90.7656,82.2109 302.07,82.2109 c 89.223,0 186.258,53.1991 230.075,134.6091 l 3.144,0 0,-112.679 175.281,0 0,799.605"
                 style="fill:#ffffff;fill-opacity:1;fill-rule:nonzero;stroke:none"
                 id="path22" /><path
                 d="m 103.633,1125.8 503.324,0 0,-88.84 -503.324,0 0,88.84"
                 style="fill:#ed192d;fill-opacity:1;fill-rule:nonzero;stroke:none"
                 id="path24" /><path
                 d="m 294.098,1504.43 c 0,35.02 28.398,63.42 63.414,63.42 35.015,0 63.39,-28.4 63.39,-63.42 0,-34.99 -28.375,-63.39 -63.39,-63.39 -35.016,0 -63.414,28.4 -63.414,63.39 l 0,0"
                 style="fill:#ed192d;fill-opacity:1;fill-rule:nonzero;stroke:none"
                 id="path26" /><path
                 d="m 0,1288.33 c 0,57.21 46.3984,103.61 103.633,103.61 57.219,0 103.613,-46.4 103.613,-103.61 0,-57.24 -46.394,-103.64 -103.613,-103.64 C 46.3984,1184.69 0,1231.09 0,1288.33 l 0,0"
                 style="fill:#ed192d;fill-opacity:1;fill-rule:nonzero;stroke:none"
                 id="path28" /><path
                 d="m 251.66,1288.33 c 0,57.21 46.399,103.61 103.637,103.61 57.215,0 103.613,-46.4 103.613,-103.61 0,-57.24 -46.398,-103.64 -103.613,-103.64 -57.238,0 -103.637,46.4 -103.637,103.64 l 0,0"
                 style="fill:#ed192d;fill-opacity:1;fill-rule:nonzero;stroke:none"
                 id="path30" /><path
                 d="m 503.324,1288.33 c 0,57.21 46.399,103.61 103.633,103.61 57.242,0 103.613,-46.4 103.613,-103.61 0,-57.24 -46.371,-103.64 -103.613,-103.64 -57.234,0 -103.633,46.4 -103.633,103.64 l 0,0"
                 style="fill:#ed192d;fill-opacity:1;fill-rule:nonzero;stroke:none"
                 id="path32" /><path
                 d="m 1509.64,903.582 -44.45,0 0,-180.062 c 0,-29.024 -3.64,-51.719 -19.52,-67.59 -14.06,-14.051 -38.54,-24.95 -72.55,-24.95 -26.77,0 -48.99,8.633 -66.69,26.329 -14.06,14.062 -18.6,28.554 -18.6,63.484 l 0,182.789 -44.44,0 0,-192.328 c 0,-84.356 63.49,-121.094 128.81,-121.094 92.08,0 137.44,49.891 137.44,125.645 l 0,187.777"
                 style="fill:#ffffff;fill-opacity:1;fill-rule:nonzero;stroke:none"
                 id="path34" /><path
                 d="m 1847.85,859.562 c 0,13.153 -10.89,24.04 -24.04,24.04 -13.15,0 -24.03,-10.887 -24.03,-24.04 0,-13.148 10.88,-24.035 24.03,-24.035 13.15,0 24.04,10.887 24.04,24.035 l 0,0 z m -4.08,-61.667 -40.38,0 0,-203.633 40.38,0 0,203.633"
                 style="fill:#ffffff;fill-opacity:1;fill-rule:evenodd;stroke:none"
                 id="path36" /><path
                 d="m 2142.74,716.711 c 5.45,32.199 24.04,50.344 54.89,50.344 28.58,0 46.25,-19.493 47.62,-50.344 l -102.51,0 0,0 z m 138.79,-63.504 c -23.59,-15.41 -46.72,-24.492 -71.2,-24.492 -39,0 -62.14,20.879 -68.49,61.23 l 143.34,0 c 0,75.293 -34.49,112.032 -88.46,112.032 -56.24,0 -95.25,-41.739 -95.25,-103.399 0,-56.242 35.38,-108.418 98.88,-108.418 34.46,0 56.7,7.715 81.18,24.043 l 0,39.004"
                 style="fill:#ffffff;fill-opacity:1;fill-rule:evenodd;stroke:none"
                 id="path38" /><path
                 d="m 2739.68,859.562 c 0,13.153 -10.89,24.04 -24.05,24.04 -13.14,0 -24.03,-10.887 -24.03,-24.04 0,-13.148 10.89,-24.035 24.03,-24.035 13.16,0 24.05,10.887 24.05,24.035 l 0,0 z m -4.08,-61.667 -40.37,0 0,-203.633 40.37,0 0,203.633"
                 style="fill:#ffffff;fill-opacity:1;fill-rule:evenodd;stroke:none"
                 id="path40" /><path
                 d="m 2929.97,628.285 -40.82,0 c -46.73,0 -62.14,28.555 -62.14,66.649 0,42.648 26.3,70.761 65.3,70.761 13.63,0 24.05,-2.254 37.66,-7.715 l 0,-129.695 z m 40.36,275.297 -40.36,0 0,-109.77 c -16.32,5.899 -29.02,8.165 -42.65,8.165 -59.4,0 -101.58,-42.18 -101.58,-101.145 0,-65.301 38.1,-106.57 98.88,-106.57 l 85.71,0 0,309.32"
                 style="fill:#ffffff;fill-opacity:1;fill-rule:evenodd;stroke:none"
                 id="path42" /><path
                 d="m 3127.8,635.531 c -10.89,-10.449 -22.66,-16.785 -35.37,-16.785 -16.79,0 -29.02,11.793 -29.02,28.582 0,24.043 29.93,35.809 64.39,47.606 l 0,-59.403 z m 69.41,-4.992 c -9.08,-6.805 -17.23,-10.887 -21.33,-10.887 -4.99,0 -7.7,2.735 -7.7,10.45 l 0,104.746 c 0,46.257 -32.66,67.129 -73.93,67.129 -29.49,0 -51.71,-9.075 -67.59,-27.657 l 0,-44.015 c 19.51,23.156 42.18,33.574 64.41,33.574 24.49,0 36.73,-10.418 36.73,-35.828 l 0,-10.899 -35.81,-12.707 c -32.66,-11.765 -69.41,-24.011 -69.41,-64.394 0,-26.297 19.96,-49.891 49.89,-49.891 18.6,0 37.19,6.805 54.88,20.887 3.65,-14.52 13.16,-20.887 30.85,-20.887 12.69,0 20.4,3.633 39.01,15.899 l 0,24.48"
                 style="fill:#ffffff;fill-opacity:1;fill-rule:evenodd;stroke:none"
                 id="path44" /><path
                 d="m 3363,628.285 -40.82,0 c -46.73,0 -62.14,28.555 -62.14,66.649 0,42.648 26.3,70.761 65.31,70.761 13.61,0 24.05,-2.254 37.65,-7.715 l 0,-129.695 z m 40.36,275.297 -40.36,0 0,-109.77 c -16.32,5.899 -29.03,8.165 -42.64,8.165 -59.41,0 -101.58,-42.18 -101.58,-101.145 0,-65.301 38.1,-106.57 98.88,-106.57 l 85.7,0 0,309.32"
                 style="fill:#ffffff;fill-opacity:1;fill-rule:evenodd;stroke:none"
                 id="path46" /><path
                 d="m 2636.76,785.188 c -21.31,11.359 -40.82,16.789 -59.88,16.789 -40.82,0 -67.11,-20.872 -67.11,-55.332 0,-54.883 95.24,-69.844 95.24,-97.969 0,-14.492 -13.59,-22.219 -29.94,-23.125 -16.32,0 -40.35,8.633 -66.65,26.765 l 0,-43.554 c 26.3,-13.594 45.81,-18.602 70.73,-18.602 38.56,0 67.15,24.043 67.15,59.871 0,20.871 -12.27,34.934 -45.81,57.168 -35.84,20.852 -49.45,31.731 -49.45,40.801 0,10.891 10.43,18.605 26.76,18.605 14.96,0 36.27,-6.367 58.96,-21.328 l 0,39.911"
                 style="fill:#ffffff;fill-opacity:1;fill-rule:nonzero;stroke:none"
                 id="path48" /><path
                 d="m 2332.99,797.895 0,-203.633 40.36,0 0,106.57 c 0,34.934 21.78,62.609 49.45,62.609 9.51,0 25.39,-8.164 37.63,-19.98 l 21.34,34.941 c -16.79,15.86 -32.23,23.575 -48.55,23.575 -19.05,0 -38.56,-14.973 -58.96,-50.801 l -0.91,0 0,46.719 -40.36,0 0,0"
                 style="fill:#ffffff;fill-opacity:1;fill-rule:nonzero;stroke:none"
                 id="path50" /><path
                 d="m 1978.09,590.16 13.59,0 89.81,207.735 -43.08,0 -53.51,-125.176 -54.91,125.176 -43.97,0 92.07,-207.735 0,0"
                 style="fill:#ffffff;fill-opacity:1;fill-rule:nonzero;stroke:none"
                 id="path52" /><path
                 d="m 1613.31,797.895 -40.37,0 0,-203.633 40.37,0 0,146.043 c 19.04,21.32 33.1,29.472 50.8,29.472 24.5,0 39.91,-19.519 39.91,-49.422 l 0,-126.093 40.36,0 0,125.625 c 0,55.789 -30.82,82.09 -69.38,82.09 -22.69,0 -45.35,-11.329 -60.79,-30.84 l -0.9,0 0,26.758"
                 style="fill:#ffffff;fill-opacity:1;fill-rule:nonzero;stroke:none"
                 id="path54" /><path
                 d="m 1288.2,375.551 28.58,0 c 43.09,0 60.32,-17.699 60.76,-46.731 0.47,-25.859 -13.15,-50.34 -60.76,-50.34 l -28.58,0 0,97.071 z m -44.44,38.09 0,-309.321 44.44,0 0,134.25 18.61,0 c 22.66,0 41.26,-7.261 82.09,-70.75 l 40.82,-63.5 53.07,0 c -21.33,29.469 -29.03,39.922 -42.18,61.231 -23.59,38.551 -40.82,67.121 -68.96,85.719 33.13,13.152 51.71,39.902 51.71,75.73 0,53.531 -39.01,86.641 -101.59,86.641 l -78.01,0 0,0"
                 style="fill:#ffffff;fill-opacity:1;fill-rule:evenodd;stroke:none"
                 id="path56" /><path
                 d="m 1538.72,226.77 c 5.43,32.199 24.04,50.359 54.88,50.359 28.56,0 46.26,-19.508 47.61,-50.359 l -102.49,0 0,0 z m 138.79,-63.489 c -23.59,-15.41 -46.72,-24.472 -71.23,-24.472 -39,0 -62.13,20.839 -68.47,61.191 l 143.32,0 c 0,75.32 -34.46,112.031 -88.43,112.031 -56.26,0 -95.27,-41.699 -95.27,-103.39 0,-56.231 35.39,-108.403 98.88,-108.403 34.48,0 56.7,7.692 81.2,24.043 l 0,39"
                 style="fill:#ffffff;fill-opacity:1;fill-rule:evenodd;stroke:none"
                 id="path58" /><path
                 d="m 2512.26,145.59 c -10.88,-10.43 -22.69,-16.801 -35.37,-16.801 -16.78,0 -29.05,11.801 -29.05,28.602 0,24.039 29.93,35.839 64.42,47.597 l 0,-59.398 z m 69.39,-5 c -9.07,-6.801 -17.24,-10.879 -21.32,-10.879 -4.99,0 -7.71,2.73 -7.71,10.449 l 0,104.75 c 0,46.262 -32.64,67.121 -73.93,67.121 -29.47,0 -51.69,-9.07 -67.57,-27.652 l 0,-43.988 c 19.5,23.129 42.18,33.55 64.4,33.55 24.5,0 36.74,-10.421 36.74,-35.812 l 0,-10.899 -35.83,-12.699 c -32.67,-11.793 -69.39,-24.039 -69.39,-64.39 0,-26.309 19.96,-49.903 49.89,-49.903 18.59,0 37.19,6.813 54.89,20.883 3.61,-14.531 13.15,-20.883 30.82,-20.883 12.7,0 20.43,3.614 39.01,15.883 l 0,24.469"
                 style="fill:#ffffff;fill-opacity:1;fill-rule:evenodd;stroke:none"
                 id="path60" /><path
                 d="m 3231.34,392.309 c -42.18,17.691 -74.38,25.41 -106.13,25.41 -98.41,0 -169.63,-68.949 -169.63,-163.27 0,-64.859 50.8,-154.211 166.9,-154.211 48.55,0 81.65,11.332 112.03,27.203 l 0,48.559 c -34.92,-22.699 -73.02,-34.941 -107.95,-34.941 -74.37,0 -125.17,48.082 -125.17,117.461 0,68.05 52.61,118.378 123.38,118.378 35.81,0 68.47,-9.976 106.57,-32.207 l 0,47.618"
                 style="fill:#ffffff;fill-opacity:1;fill-rule:nonzero;stroke:none"
                 id="path62" /><path
                 d="m 3703.4,413.641 -40.36,0 0,-309.321 40.36,0 0,309.321"
                 style="fill:#ffffff;fill-opacity:1;fill-rule:nonzero;stroke:none"
                 id="path64" /><path
                 d="m 3842.05,275.762 c 40.38,0 69.41,-28.571 69.41,-68.043 0,-43.989 -26.76,-71.188 -69.41,-71.188 -39,0 -65.74,28.571 -65.74,71.66 0,39 27.65,67.571 65.74,67.571 l 0,0 z m 0.47,36.269 c -60.78,0 -107.5,-45.351 -107.5,-103.84 0,-62.601 44.9,-107.953 107.5,-107.953 65.3,0 110.21,43.532 110.21,107.953 0,60.309 -46.26,103.84 -110.21,103.84 l 0,0"
                 style="fill:#ffffff;fill-opacity:1;fill-rule:evenodd;stroke:none"
                 id="path66" /><path
                 d="m 4103.07,295.281 c -21.34,11.321 -40.83,16.75 -59.88,16.75 -40.82,0 -67.13,-20.859 -67.13,-55.332 0,-54.879 95.25,-69.84 95.25,-97.969 0,-14.488 -13.61,-22.199 -29.93,-23.121 -16.33,0 -40.36,8.633 -66.68,26.762 l 0,-43.539 c 26.32,-13.594 45.81,-18.594 70.76,-18.594 38.55,0 67.12,24.043 67.12,59.883 0,20.84 -12.24,34.918 -45.81,57.141 -35.82,20.867 -49.44,31.726 -49.44,40.797 0,10.89 10.42,18.601 26.77,18.601 14.97,0 36.28,-6.328 58.97,-21.308 l 0,39.929"
                 style="fill:#ffffff;fill-opacity:1;fill-rule:nonzero;stroke:none"
                 id="path68" /><path
                 d="m 1895.42,307.949 -45.37,0 -52.6,-114.719 -54.89,114.719 -45.81,0 78.92,-160.078 L 1706.28,0 l 44.91,0 144.23,307.949 0,0"
                 style="fill:#ffffff;fill-opacity:1;fill-rule:nonzero;stroke:none"
                 id="path70" /><path
                 d="m 2111.78,413.641 -44.47,0 0,-299.809 c 0,-48.0508 -4.08,-71.6406 -51.24,-71.6406 l -11.33,0 8.16,-41.269525 C 2017.42,0.449219 2021.06,0 2026.51,0 c 62.14,0 85.27,43.0898 85.27,100.691 l 0,312.95"
                 style="fill:#ffffff;fill-opacity:1;fill-rule:nonzero;stroke:none"
                 id="path72" /><path
                 d="m 2352.63,104.32 0,203.629 -40.36,0 0,-145.578 c -13.18,-18.601 -30.4,-28.582 -48.55,-28.582 -27.68,0 -41.73,16.352 -41.73,44.902 l 0,129.258 -40.36,0 0,-126.519 c 0,-51.719 29.02,-81.192 70.29,-81.192 19.96,0 43.56,11.793 60.35,29.942 l 0,-25.86 40.36,0 0,0"
                 style="fill:#ffffff;fill-opacity:1;fill-rule:evenodd;stroke:none"
                 id="path74" /><path
                 d="m 2661.12,307.949 -40.38,0 0,-203.629 40.38,0 0,146.039 c 19.06,21.321 33.12,29.481 50.81,29.481 24.48,0 39.9,-19.488 39.9,-49.43 l 0,-126.09 40.38,0 0,125.621 c 0,55.797 -30.85,82.09 -69.42,82.09 -22.65,0 -45.34,-11.32 -60.76,-30.82 l -0.91,0 0,26.738"
                 style="fill:#ffffff;fill-opacity:1;fill-rule:nonzero;stroke:none"
                 id="path76" /><path
                 d="m 3376.85,145.59 c -10.88,-10.43 -22.69,-16.801 -35.39,-16.801 -16.79,0 -29.03,11.801 -29.03,28.602 0,24.039 29.93,35.839 64.42,47.597 l 0,-59.398 z m 69.39,-5 c -9.07,-6.801 -17.24,-10.879 -21.32,-10.879 -4.99,0 -7.71,2.73 -7.71,10.449 l 0,104.75 c 0,46.262 -32.67,67.121 -73.93,67.121 -29.47,0 -51.72,-9.07 -67.6,-27.652 l 0,-43.988 c 19.53,23.129 42.21,33.55 64.43,33.55 24.5,0 36.74,-10.421 36.74,-35.812 l 0,-10.899 -35.83,-12.699 c -32.67,-11.793 -69.41,-24.039 -69.41,-64.39 0,-26.309 19.95,-49.903 49.89,-49.903 18.61,0 37.19,6.813 54.89,20.883 3.63,-14.531 13.14,-20.883 30.84,-20.883 12.7,0 20.4,3.614 39.01,15.883 l 0,24.469"
                 style="fill:#ffffff;fill-opacity:1;fill-rule:evenodd;stroke:none"
                 id="path78" /><path
                 d="m 3486.27,307.949 0,-203.629 40.35,0 0,106.571 c 0,34.929 21.78,62.609 49.45,62.609 9.52,0 25.39,-8.16 37.64,-19.961 l 21.33,34.922 c -16.79,15.859 -32.22,23.57 -48.55,23.57 -19.04,0 -38.53,-14.972 -58.95,-50.781 l -0.92,0 0,46.699 -40.35,0 0,0"
                 style="fill:#ffffff;fill-opacity:1;fill-rule:nonzero;stroke:none"
                 id="path80" /></g></g></g></g></g></g></svg>